# Blender v2.74 (sub 0) OBJ File: ''
# www.blender.org
mtllib chestahedron-g3dbm-v1-00-01.mtl
o ChestahedronFromMathematica_g3Dbm_
v 0.072933 0.234745 -0.313162
v -0.107871 0.628204 0.000000
v 0.469479 -0.628204 0.000000
v -0.396546 -0.628204 0.500000
v 0.072933 0.234745 0.313162
v -0.469479 0.234745 0.000000
v -0.396546 -0.628204 -0.500000
vn 0.433500 0.498200 -0.750900
vn 0.000000 1.000000 0.000000
vn 0.861200 -0.508300 0.000000
vn -0.430600 -0.508300 0.745800
vn 0.433500 0.498200 0.750900
vn -0.867100 0.498200 0.000000
vn -0.430600 -0.508300 -0.745800
usemtl b0b0b0
s 1
f 1//1 2//2 3//3
f 2//2 4//4 5//5
f 4//4 2//2 6//6
f 4//4 6//6 7//7
f 6//6 2//2 7//7
f 2//2 1//1 7//7
f 4//4 3//3 5//5
f 4//4 7//7 3//3
f 7//7 1//1 3//3
f 3//3 2//2 5//5
