<svg id="Layer_1" data-name="Layer 1" xmlns="http://www.w3.org/2000/svg" viewBox="0 0 317.99 474.38"><defs><style>.cls-1{fill:#fff;}</style></defs><title>Chestahedron-Fat</title><path class="cls-1" d="M414.09,384.83c-.12,4.91-2.82,7.31-6.27,9.46Q358.44,425.1,309.15,456c-15.67,9.81-31.4,19.5-47,29.48-5,3.18-9.19,3.25-14.25,0q-72.59-46-145.35-91.68c-6.64-4.19-7.4-5.89-5.72-13.58q24-109.47,48-218.91a19.59,19.59,0,0,1,3.21-7.15Q197.41,86.61,246.9,19.11c5.45-7.44,10.78-7.41,16.27.1Q312.4,86.6,361.51,154.08a27.41,27.41,0,0,1,4.22,9.93q24,108.93,47.79,217.93C413.77,383.07,414,384.22,414.09,384.83Zm-159-248.51a16.05,16.05,0,0,0-1.42,1.79q-30.94,54.79-61.77,109.66a8.59,8.59,0,0,0-.31,6c12.54,40,25.25,79.95,37.81,120,1,3.07,2.4,4.1,5.62,4.05,13-.18,26-.26,39,0,4.06.09,5.74-1.15,6.95-5q18.42-59.08,37.29-118a10,10,0,0,0-.94-8.86q-30-52.78-59.7-105.68C256.89,139,256.05,137.84,255.07,136.32Zm8-89.39c0,23.57,0,45.74.07,67.9a11.25,11.25,0,0,0,1.68,5.07q29.68,52.65,59.48,105.22c.58,1,1.37,1.93,2.41,3.38,6.6-21,12.89-41.33,19.46-61.58a8.46,8.46,0,0,0-1.35-8.64Q305.64,104.91,266.64,51.4C265.78,50.23,264.85,49.12,263.11,46.93ZM183.33,228.21c.92-1.34,1.53-2.1,2-2.94q30.09-53,60.09-106a13,13,0,0,0,1.4-6.14c.1-20.49.07-41,0-61.46,0-1.22-.17-2.43-.32-4.46-1.56,2-2.59,3.31-3.56,4.63Q208.43,99,173.88,146.15c-3.73,5.09-9.51,9.92-10.42,15.51-.93,5.78,2.78,12.37,4.7,18.54C173.09,196,178.14,211.82,183.33,228.21Zm-4,41.13c-20.74,36.64-40.84,72.15-61.18,108.1h95.33C202.16,341.48,191,306,179.37,269.34Zm151.26,0L296.47,377.49h95.38ZM376,395l-.38-1c-27.15,0-54.31,0-81.47-.06-2.92,0-3.52,1.54-4.21,3.77q-7.92,25.25-16,50.43l-4.22,13.31Zm-136.1,66.12c-.28-1.42-.36-2.21-.59-3-6.43-20.29-13-40.55-19.22-60.9-1-3.3-3-3.33-5.57-3.33q-38.73.06-77.47,0c-.91,0-1.82.11-4.17.25ZM123.8,332.83a18.25,18.25,0,0,0,1.81-1.94q22.65-40,45.18-80a8.59,8.59,0,0,0,.48-6c-4.9-15.89-10-31.71-15.12-47.54-.35-1.11-.88-2.16-1.7-4.14C144.16,240.05,134.11,285.84,123.8,332.83Zm261.28-.74.87-.44c-10.07-45.84-20.13-91.67-30.31-138a10.13,10.13,0,0,0-1.24,1.77c-5.33,16.63-10.73,33.24-15.82,49.94-.57,1.89.1,4.62,1.11,6.45,9,16.15,18.13,32.19,27.23,48.27Q376,316.06,385.08,332.09Zm-149,62.07,18.38,57.71,1.16-.07,18.3-57.64Z" transform="translate(-96.1 -13.55)"/></svg>