<?xml version="1.0" encoding="utf-8"?>
<!-- Generator: Adobe Illustrator 22.1.0, SVG Export Plug-In . SVG Version: 6.00 Build 0)  -->
<svg version="1.1" id="Layer_1" xmlns="http://www.w3.org/2000/svg" xmlns:xlink="http://www.w3.org/1999/xlink" x="0px" y="0px"
	 viewBox="0 0 318 474.4" style="enable-background:new 0 0 318 474.4;" xml:space="preserve">
<style type="text/css">
	.st0{fill:#231F20;}
</style>
<title>Chestahedron-Fat</title>
<path class="st0" d="M318,371.3c-0.1,4.9-2.8,7.3-6.3,9.5c-32.9,20.5-65.8,41.1-98.7,61.7c-15.7,9.8-31.4,19.5-47,29.5
	c-5,3.2-9.2,3.2-14.2,0C103.4,441.3,55,410.7,6.4,380.2c-6.6-4.2-7.4-5.9-5.7-13.6c16-73,32-146,48-218.9c0.6-2.6,1.7-5,3.2-7.1
	c32.9-45,65.9-90.1,98.9-135.1c5.5-7.4,10.8-7.4,16.3,0.1c32.8,44.9,65.6,89.9,98.3,134.9c2.1,3,3.5,6.4,4.2,9.9
	c16,72.6,31.9,145.3,47.8,217.9C317.7,369.5,317.9,370.7,318,371.3z M159,122.8c-0.5,0.6-1,1.2-1.4,1.8
	c-20.6,36.5-41.2,73.1-61.8,109.7c-0.8,1.9-0.9,4-0.3,6c12.5,40,25.2,79.9,37.8,120c1,3.1,2.4,4.1,5.6,4c13-0.2,26-0.3,39,0
	c4.1,0.1,5.7-1.1,7-5c12.3-39.4,24.7-78.7,37.3-118c1.1-2.9,0.7-6.2-0.9-8.9c-20-35.2-39.9-70.4-59.7-105.7
	C160.8,125.4,159.9,124.3,159,122.8L159,122.8z M167,33.4c0,23.6,0,45.7,0.1,67.9c0.1,1.8,0.7,3.5,1.7,5.1
	c19.8,35.1,39.6,70.2,59.5,105.2c0.6,1,1.4,1.9,2.4,3.4c6.6-21,12.9-41.3,19.5-61.6c1.2-2.9,0.7-6.2-1.4-8.6
	c-26.1-35.6-52.2-71.2-78.2-106.9C169.7,36.7,168.8,35.6,167,33.4L167,33.4z M87.2,214.7c0.9-1.3,1.5-2.1,2-2.9
	c20.1-35.3,40.1-70.7,60.1-106c1-1.9,1.4-4,1.4-6.1c0.1-20.5,0.1-41,0-61.5c0-1.2-0.2-2.4-0.3-4.5c-1.6,2-2.6,3.3-3.6,4.6
	c-23,31.4-46,62.9-69.1,94.3c-3.7,5.1-9.5,9.9-10.4,15.5c-0.9,5.8,2.8,12.4,4.7,18.5C77,182.4,82,198.3,87.2,214.7z M83.2,255.8
	c-20.7,36.6-40.8,72.1-61.2,108.1h95.3C106.1,327.9,94.9,292.4,83.2,255.8L83.2,255.8z M234.5,255.8l-34.1,108.1h95.4L234.5,255.8z
	 M279.9,381.4l-0.4-1c-27.1,0-54.3,0-81.5-0.1c-2.9,0-3.5,1.5-4.2,3.8c-5.3,16.8-10.6,33.6-16,50.4l-4.2,13.3L279.9,381.4z
	 M143.8,447.6c-0.3-1.4-0.4-2.2-0.6-3c-6.4-20.3-13-40.5-19.2-60.9c-1-3.3-3-3.3-5.6-3.3c-25.8,0-51.6,0-77.5,0
	c-0.9,0-1.8,0.1-4.2,0.2L143.8,447.6z M27.7,319.3c0.6-0.6,1.3-1.3,1.8-1.9c15.1-26.7,30.2-53.3,45.2-80c0.9-1.9,1-4,0.5-6
	c-4.9-15.9-10-31.7-15.1-47.5c-0.4-1.1-0.9-2.2-1.7-4.1C48.1,226.5,38,272.3,27.7,319.3z M289,318.5l0.9-0.4
	c-10.1-45.8-20.1-91.7-30.3-138c-0.5,0.5-0.9,1.1-1.2,1.8c-5.3,16.6-10.7,33.2-15.8,49.9c-0.6,1.9,0.1,4.6,1.1,6.4
	c9,16.1,18.1,32.2,27.2,48.3C276.9,297.2,282.9,307.9,289,318.5L289,318.5z M140,380.6l18.4,57.7l1.2-0.1l18.3-57.6L140,380.6z"/>
</svg>
